<mxfile host="app.diagrams.net" modified="2022-06-14T10:45:30.118Z" agent="5.0 (Macintosh; Intel Mac OS X 10_15_7) AppleWebKit/537.36 (KHTML, like Gecko) Chrome/102.0.5005.115 Safari/537.36" etag="asTn_mFp1ZqfhQ0nxu23" version="20.0.1" type="github">
  <diagram id="2rCz58Q0hR5yxL1L95e8" name="第 1 页">
    <mxGraphModel dx="1046" dy="791" grid="1" gridSize="10" guides="1" tooltips="1" connect="1" arrows="1" fold="1" page="1" pageScale="1" pageWidth="1169" pageHeight="1654" math="0" shadow="0">
      <root>
        <mxCell id="0" />
        <mxCell id="1" parent="0" />
        <mxCell id="3Qw85olmjHj9VB-eK0Yu-1" value="&lt;font style=&quot;font-size: 20px;&quot;&gt;Application&lt;/font&gt;" style="rounded=0;whiteSpace=wrap;html=1;strokeWidth=2;fillColor=#1ba1e2;fontColor=#ffffff;strokeColor=#006EAF;" vertex="1" parent="1">
          <mxGeometry x="210" y="270" width="250" height="40" as="geometry" />
        </mxCell>
        <mxCell id="3Qw85olmjHj9VB-eK0Yu-2" value="&lt;font color=&quot;#ffffff&quot; style=&quot;font-size: 28px;&quot;&gt;&lt;b&gt;Base Framework&lt;/b&gt;&lt;/font&gt;" style="rounded=0;whiteSpace=wrap;html=1;strokeWidth=0;fillColor=#fa6800;fontColor=#000000;strokeColor=#C73500;" vertex="1" parent="1">
          <mxGeometry x="210" y="330" width="250" height="60" as="geometry" />
        </mxCell>
        <mxCell id="3Qw85olmjHj9VB-eK0Yu-3" value="&lt;span style=&quot;font-size: 28px;&quot;&gt;&lt;font color=&quot;#ffffff&quot;&gt;&lt;b&gt;Kernel&lt;/b&gt;&lt;/font&gt;&lt;/span&gt;" style="rounded=0;whiteSpace=wrap;html=1;strokeWidth=0;fillColor=#fa6800;fontColor=#000000;strokeColor=#C73500;" vertex="1" parent="1">
          <mxGeometry x="210" y="390" width="250" height="60" as="geometry" />
        </mxCell>
        <mxCell id="3Qw85olmjHj9VB-eK0Yu-4" value="Hardware" style="rounded=0;whiteSpace=wrap;html=1;fontSize=30;strokeWidth=2;fillColor=#d80073;fontColor=#ffffff;strokeColor=#A50040;" vertex="1" parent="1">
          <mxGeometry x="210" y="470" width="630" height="50" as="geometry" />
        </mxCell>
        <mxCell id="3Qw85olmjHj9VB-eK0Yu-5" value="&lt;font size=&quot;1&quot; color=&quot;#ffffff&quot; style=&quot;&quot;&gt;&lt;b style=&quot;font-size: 24px;&quot;&gt;Android Framework&lt;/b&gt;&lt;/font&gt;" style="rounded=0;whiteSpace=wrap;html=1;strokeWidth=0;fillColor=#60a917;fontColor=#ffffff;strokeColor=#2D7600;" vertex="1" parent="1">
          <mxGeometry x="585" y="330" width="250" height="60" as="geometry" />
        </mxCell>
        <mxCell id="3Qw85olmjHj9VB-eK0Yu-6" value="&lt;span style=&quot;font-size: 28px;&quot;&gt;&lt;font color=&quot;#ffffff&quot;&gt;&lt;b&gt;Linux Kernel&lt;/b&gt;&lt;/font&gt;&lt;/span&gt;" style="rounded=0;whiteSpace=wrap;html=1;strokeWidth=0;fillColor=#60a917;fontColor=#ffffff;strokeColor=#2D7600;" vertex="1" parent="1">
          <mxGeometry x="585" y="390" width="250" height="60" as="geometry" />
        </mxCell>
        <mxCell id="3Qw85olmjHj9VB-eK0Yu-7" value="&lt;font style=&quot;font-size: 20px;&quot;&gt;Application&lt;/font&gt;" style="rounded=0;whiteSpace=wrap;html=1;strokeWidth=2;fillColor=#1ba1e2;fontColor=#ffffff;strokeColor=#006EAF;" vertex="1" parent="1">
          <mxGeometry x="585" y="270" width="250" height="40" as="geometry" />
        </mxCell>
        <mxCell id="3Qw85olmjHj9VB-eK0Yu-9" value="" style="endArrow=none;dashed=1;html=1;rounded=0;fontSize=24;fontColor=#FFFFFF;strokeWidth=3;" edge="1" parent="1">
          <mxGeometry width="50" height="50" relative="1" as="geometry">
            <mxPoint x="160" y="320" as="sourcePoint" />
            <mxPoint x="880" y="320" as="targetPoint" />
          </mxGeometry>
        </mxCell>
        <mxCell id="3Qw85olmjHj9VB-eK0Yu-10" value="" style="endArrow=none;dashed=1;html=1;rounded=0;fontSize=24;fontColor=#FFFFFF;strokeWidth=3;" edge="1" parent="1">
          <mxGeometry width="50" height="50" relative="1" as="geometry">
            <mxPoint x="160" y="460" as="sourcePoint" />
            <mxPoint x="880" y="460" as="targetPoint" />
          </mxGeometry>
        </mxCell>
        <mxCell id="3Qw85olmjHj9VB-eK0Yu-11" value="" style="shape=curlyBracket;whiteSpace=wrap;html=1;rounded=1;fontSize=24;fontColor=#FFFFFF;strokeWidth=2;" vertex="1" parent="1">
          <mxGeometry x="181" y="336" width="20" height="110" as="geometry" />
        </mxCell>
        <mxCell id="3Qw85olmjHj9VB-eK0Yu-12" value="&lt;font color=&quot;#000000&quot;&gt;OS&lt;/font&gt;" style="text;strokeColor=none;fillColor=none;html=1;fontSize=24;fontStyle=1;verticalAlign=middle;align=center;fontColor=#FFFFFF;" vertex="1" parent="1">
          <mxGeometry x="110" y="371" width="100" height="40" as="geometry" />
        </mxCell>
        <mxCell id="3Qw85olmjHj9VB-eK0Yu-13" value="" style="shape=curlyBracket;whiteSpace=wrap;html=1;rounded=1;flipH=1;fontSize=24;fontColor=#000000;strokeWidth=2;" vertex="1" parent="1">
          <mxGeometry x="850" y="332" width="20" height="114" as="geometry" />
        </mxCell>
        <mxCell id="3Qw85olmjHj9VB-eK0Yu-14" value="&lt;b&gt;Android&lt;/b&gt;" style="text;html=1;align=center;verticalAlign=middle;resizable=0;points=[];autosize=1;strokeColor=none;fillColor=none;fontSize=24;fontColor=#000000;" vertex="1" parent="1">
          <mxGeometry x="876" y="372" width="110" height="30" as="geometry" />
        </mxCell>
      </root>
    </mxGraphModel>
  </diagram>
</mxfile>
